<svg xmlns="http://www.w3.org/2000/svg" xmlns:xlink="http://www.w3.org/1999/xlink" width="2000" zoomAndPan="magnify" viewBox="0 0 1500 1499.999933" height="2000" preserveAspectRatio="xMidYMid meet" version="1.0"><defs><g/><clipPath id="38f9b7d8a0"><path d="M 0 0 L 1500 0 L 1500 1500 L 0 1500 Z M 0 0 " clip-rule="nonzero"/></clipPath><clipPath id="bc5aad0857"><rect x="0" width="1500" y="0" height="1500"/></clipPath><clipPath id="90c9e6a935"><path d="M 478 59.195312 L 614 59.195312 L 614 195 L 478 195 Z M 478 59.195312 " clip-rule="nonzero"/></clipPath><clipPath id="8d1ecba1da"><path d="M 121.191406 230 L 375 230 L 375 1189 L 121.191406 1189 Z M 121.191406 230 " clip-rule="nonzero"/></clipPath><clipPath id="f745e38493"><path d="M 481 790 L 1319 790 L 1319 1316.945312 L 481 1316.945312 Z M 481 790 " clip-rule="nonzero"/></clipPath><clipPath id="8d20abe233"><path d="M 1234 773 L 1378.941406 773 L 1378.941406 898 L 1234 898 Z M 1234 773 " clip-rule="nonzero"/></clipPath><clipPath id="0d5df5dd9b"><path d="M 345.113281 455.175781 L 1209 455.175781 L 1209 1044.675781 L 345.113281 1044.675781 Z M 345.113281 455.175781 " clip-rule="nonzero"/></clipPath><clipPath id="f3f790d72f"><rect x="0" width="1318" y="0" height="142"/></clipPath></defs><rect x="-150" width="1800" fill="#ffffff" y="-149.999993" height="1799.99992" fill-opacity="1"/><rect x="-150" width="1800" fill="#ffffff" y="-149.999993" height="1799.99992" fill-opacity="1"/><g transform="matrix(1, 0, 0, 1, 0, 0.000000000000112861)"><g clip-path="url(#bc5aad0857)"><g clip-path="url(#38f9b7d8a0)"><rect x="-330" width="2160" fill="#7c9a6d" height="2159.999904" y="-329.999985" fill-opacity="1"/></g></g></g><path fill="#ffffff" d="M 494.914062 162.363281 C 516.113281 152.714844 537.984375 144.496094 560.261719 137.484375 C 565.828125 135.726562 571.460938 134.1875 577.066406 132.53125 C 582.722656 131.074219 588.347656 129.484375 594.035156 128.128906 C 599.726562 126.796875 605.398438 125.355469 611.132812 124.207031 L 619.71875 122.402344 L 628.355469 120.828125 C 651.390625 116.695312 674.6875 113.828125 698.09375 112.453125 C 703.949219 112.191406 709.804688 111.796875 715.664062 111.722656 L 724.460938 111.507812 C 727.390625 111.460938 730.324219 111.554688 733.253906 111.570312 L 750.855469 111.785156 C 752.320312 111.8125 753.789062 111.796875 755.253906 111.859375 L 759.648438 112.121094 L 768.433594 112.644531 L 777.226562 113.171875 C 780.152344 113.382812 783.097656 113.429688 786.007812 113.808594 L 803.523438 115.726562 L 812.277344 116.71875 L 820.976562 118.113281 L 838.382812 120.90625 C 844.167969 121.941406 849.898438 123.265625 855.65625 124.429688 C 861.398438 125.691406 867.203125 126.683594 872.863281 128.28125 C 884.238281 131.257812 895.691406 133.976562 906.863281 137.675781 C 912.464844 139.464844 918.117188 141.109375 923.667969 143.054688 L 940.238281 149.125 C 942.992188 150.152344 945.773438 151.117188 948.507812 152.195312 L 956.644531 155.609375 L 972.917969 162.441406 L 988.871094 169.992188 L 996.84375 173.78125 C 999.5 175.039062 1002.054688 176.507812 1004.664062 177.863281 L 1020.246094 186.15625 C 1025.421875 188.953125 1030.410156 192.089844 1035.476562 195.078125 C 1045.695312 200.925781 1055.382812 207.625 1065.210938 214.089844 L 1068.890625 216.523438 L 1072.457031 219.121094 L 1079.589844 224.320312 L 1086.71875 229.515625 C 1089.101562 231.242188 1091.488281 232.964844 1093.753906 234.839844 C 1102.898438 242.238281 1112.277344 249.355469 1120.976562 257.285156 C 1125.371094 261.191406 1129.878906 264.976562 1134.183594 268.980469 L 1146.859375 281.25 C 1148.953125 283.3125 1151.117188 285.304688 1153.15625 287.421875 L 1159.210938 293.835938 L 1171.300781 306.667969 L 1182.816406 320.019531 L 1188.574219 326.691406 L 1194.039062 333.605469 L 1204.9375 347.453125 C 1208.453125 352.15625 1211.808594 356.984375 1215.21875 361.761719 L 1220.316406 368.945312 C 1222.058594 371.308594 1223.539062 373.855469 1225.160156 376.296875 L 1234.691406 391.105469 C 1259.457031 431 1279.078125 473.945312 1293.769531 518.355469 C 1307.867188 562.96875 1316.898438 609.105469 1320.019531 655.542969 C 1313.765625 609.429688 1302.914062 564.117188 1287.148438 520.632812 C 1278.84375 499.058594 1270.222656 477.597656 1259.570312 457.105469 C 1254.59375 446.691406 1248.820312 436.699219 1243.273438 426.597656 L 1241.183594 422.8125 C 1240.464844 421.566406 1239.683594 420.351562 1238.9375 419.117188 L 1234.414062 411.753906 L 1229.894531 404.386719 C 1228.378906 401.9375 1226.929688 399.449219 1225.261719 397.09375 L 1215.566406 382.796875 C 1213.917969 380.4375 1212.414062 377.976562 1210.644531 375.703125 L 1205.480469 368.78125 C 1202.007812 364.1875 1198.652344 359.515625 1195.148438 354.949219 L 1184.277344 341.542969 L 1178.832031 334.851562 L 1173.101562 328.398438 L 1161.644531 315.496094 L 1149.632812 303.113281 L 1143.625 296.929688 C 1141.605469 294.886719 1139.457031 292.972656 1137.378906 290.984375 L 1124.824219 279.167969 C 1120.601562 275.273438 1116.175781 271.597656 1111.863281 267.800781 C 1103.335938 260.085938 1094.128906 253.1875 1085.164062 246 C 1082.945312 244.175781 1080.605469 242.503906 1078.269531 240.832031 L 1071.28125 235.792969 L 1064.292969 230.75 L 1060.800781 228.226562 L 1057.195312 225.867188 C 1047.5625 219.605469 1038.082031 213.105469 1028.074219 207.445312 C 1008.5 195.394531 987.898438 185.144531 967.121094 175.347656 L 951.261719 168.605469 L 943.332031 165.230469 C 940.667969 164.160156 937.953125 163.210938 935.269531 162.195312 L 919.113281 156.1875 C 913.703125 154.25 908.179688 152.648438 902.726562 150.839844 C 891.863281 147.058594 880.710938 144.253906 869.632812 141.179688 C 864.117188 139.53125 858.457031 138.488281 852.859375 137.175781 C 847.242188 135.953125 841.652344 134.570312 836.007812 133.480469 L 819.011719 130.503906 L 810.507812 129.011719 L 801.949219 127.921875 L 784.824219 125.703125 C 781.976562 125.261719 779.097656 125.152344 776.230469 124.875 L 767.625 124.15625 L 759.015625 123.4375 L 754.710938 123.074219 C 753.273438 122.980469 751.832031 122.960938 750.394531 122.902344 L 733.121094 122.285156 C 730.242188 122.199219 727.359375 122.035156 724.480469 122.015625 L 715.832031 122.019531 C 710.066406 121.957031 704.304688 122.207031 698.539062 122.328125 C 675.476562 122.929688 652.4375 124.992188 629.574219 128.320312 C 583.796875 134.816406 538.765625 146.804688 495.324219 163.34375 Z M 494.914062 162.363281 " fill-opacity="1" fill-rule="nonzero"/><g clip-path="url(#90c9e6a935)"><path fill="#ffffff" d="M 613.148438 188.492188 C 613.820312 184.5625 611.15625 180.832031 607.214844 180.167969 L 498.238281 161.753906 L 561.007812 70.785156 C 563.277344 67.496094 562.460938 62.988281 559.179688 60.726562 C 555.894531 58.46875 551.371094 59.324219 549.113281 62.574219 L 479.90625 162.878906 C 478.511719 164.910156 478.234375 167.519531 479.195312 169.796875 C 480.15625 172.070312 482.222656 173.695312 484.648438 174.109375 L 604.808594 194.417969 C 606.222656 194.648438 607.601562 194.464844 608.824219 193.949219 C 611.019531 193.019531 612.714844 191.015625 613.148438 188.492188 Z M 613.148438 188.492188 " fill-opacity="1" fill-rule="nonzero"/></g><g clip-path="url(#8d1ecba1da)"><path fill="#ffffff" d="M 362.5 1188.835938 C 324.933594 1161.6875 290.667969 1129.796875 260.476562 1094.335938 C 245.261719 1076.6875 231.527344 1057.8125 218.386719 1038.535156 C 216.675781 1036.167969 215.242188 1033.621094 213.6875 1031.15625 L 209.09375 1023.707031 C 206.070312 1018.71875 202.886719 1013.816406 199.988281 1008.75 L 191.570312 993.390625 C 188.769531 988.265625 185.863281 983.191406 183.433594 977.878906 L 175.800781 962.097656 C 174.566406 959.449219 173.171875 956.875 172.070312 954.164062 L 168.695312 946.074219 L 161.960938 929.882812 C 160.773438 927.207031 159.886719 924.417969 158.882812 921.671875 L 155.933594 913.410156 C 153.996094 907.894531 151.941406 902.414062 150.105469 896.863281 L 145.074219 880.050781 C 141.46875 868.90625 138.953125 857.472656 136.160156 846.105469 C 125.804688 800.453125 120.679688 753.578125 121.230469 706.75 C 121.398438 695.042969 121.894531 683.339844 122.730469 671.664062 C 123.152344 665.824219 123.648438 659.992188 124.238281 654.167969 L 126.46875 636.75 C 127.25 630.949219 127.902344 625.128906 128.796875 619.347656 L 131.996094 602.078125 L 133.597656 593.449219 L 134.398438 589.132812 C 134.679688 587.695312 135.070312 586.285156 135.398438 584.859375 L 139.605469 567.8125 C 145.261719 545.101562 152.640625 522.855469 160.886719 500.976562 L 162.386719 496.859375 C 162.902344 495.492188 163.515625 494.164062 164.078125 492.8125 L 167.515625 484.746094 L 174.421875 468.628906 C 176.859375 463.320312 179.570312 458.136719 182.128906 452.886719 C 184.761719 447.671875 187.238281 442.378906 189.996094 437.230469 C 234.015625 354.8125 297.785156 283.269531 374.265625 230.984375 C 301.34375 288.058594 241.304688 360.492188 199.914062 442.367188 C 158.664062 524.320312 136.9375 615.484375 135.644531 706.917969 C 135.007812 752.652344 139.730469 798.441406 149.625 843.097656 C 152.199219 854.238281 154.484375 865.460938 157.859375 876.398438 L 162.539062 892.914062 C 164.257812 898.371094 166.195312 903.757812 168.011719 909.183594 L 170.78125 917.308594 C 171.726562 920.011719 172.550781 922.757812 173.675781 925.390625 L 180.046875 941.339844 L 183.226562 949.316406 C 184.238281 952 185.546875 954.550781 186.695312 957.175781 L 193.804688 972.820312 C 232.917969 1055.8125 291.683594 1129.308594 363.148438 1187.988281 Z M 362.5 1188.835938 " fill-opacity="1" fill-rule="nonzero"/></g><path fill="#ffffff" d="M 326.371094 1073.261719 C 322.628906 1074.632812 320.71875 1078.800781 322.101562 1082.546875 L 360.316406 1186.253906 L 250.179688 1177.035156 C 246.199219 1176.699219 242.691406 1179.648438 242.367188 1183.621094 C 242.039062 1187.589844 245.03125 1191.09375 248.972656 1191.433594 L 370.414062 1201.597656 C 372.867188 1201.796875 375.269531 1200.738281 376.765625 1198.773438 C 378.257812 1196.808594 378.640625 1194.207031 377.796875 1191.898438 L 335.660156 1077.546875 C 335.15625 1076.207031 334.3125 1075.105469 333.257812 1074.300781 C 331.359375 1072.855469 328.777344 1072.378906 326.371094 1073.261719 Z M 326.371094 1073.261719 " fill-opacity="1" fill-rule="nonzero"/><g clip-path="url(#f745e38493)"><path fill="#ffffff" d="M 1318.511719 790.609375 C 1313.777344 836.808594 1303.566406 882.617188 1287.886719 926.597656 C 1271.847656 970.414062 1251.246094 1012.808594 1225.089844 1051.683594 C 1173.617188 1130.019531 1102.617188 1195.386719 1020.828125 1241.441406 L 1017.011719 1243.636719 L 1013.109375 1245.667969 L 1005.296875 1249.730469 L 997.488281 1253.789062 L 993.582031 1255.816406 L 989.597656 1257.6875 C 978.9375 1262.59375 968.394531 1267.757812 957.445312 1272.003906 L 949.304688 1275.347656 C 946.582031 1276.4375 943.902344 1277.640625 941.117188 1278.574219 L 924.550781 1284.515625 C 921.777344 1285.46875 919.054688 1286.570312 916.242188 1287.40625 L 907.832031 1289.996094 C 902.214844 1291.683594 896.613281 1293.429688 890.980469 1295.054688 L 873.921875 1299.375 L 865.398438 1301.535156 L 856.785156 1303.3125 L 839.558594 1306.839844 C 833.792969 1307.898438 827.984375 1308.699219 822.203125 1309.640625 C 810.65625 1311.679688 798.972656 1312.734375 787.332031 1313.988281 L 782.964844 1314.445312 C 781.503906 1314.574219 780.039062 1314.628906 778.578125 1314.722656 L 769.8125 1315.234375 C 763.964844 1315.535156 758.125 1316.003906 752.277344 1316.164062 C 705.480469 1317.683594 658.574219 1313.628906 612.878906 1304.128906 C 567.238281 1294.425781 522.792969 1279.402344 481.089844 1259.003906 C 524.066406 1276.519531 568.699219 1289.554688 614.1875 1297.25 C 659.65625 1305.019531 705.898438 1307.441406 751.792969 1305.003906 C 797.671875 1302.300781 843.1875 1294.632812 887.265625 1281.988281 C 909.148438 1275.171875 931.007812 1268.164062 952.039062 1259.003906 C 962.710938 1254.8125 972.980469 1249.710938 983.367188 1244.875 C 984.660156 1244.257812 985.964844 1243.671875 987.25 1243.03125 L 991.050781 1241.03125 L 1006.261719 1233.03125 L 1010.0625 1231.03125 L 1013.777344 1228.871094 C 1053.640625 1206.3125 1091.320312 1179.679688 1124.988281 1148.515625 C 1129.191406 1144.625 1133.511719 1140.847656 1137.628906 1136.859375 L 1149.808594 1124.714844 C 1151.816406 1122.667969 1153.921875 1120.710938 1155.851562 1118.59375 L 1161.667969 1112.257812 C 1165.53125 1108.015625 1169.46875 1103.84375 1173.269531 1099.542969 L 1184.339844 1086.367188 C 1186.171875 1084.160156 1188.066406 1082 1189.847656 1079.753906 L 1195.089844 1072.925781 L 1205.59375 1059.277344 L 1215.535156 1045.210938 L 1220.503906 1038.171875 L 1225.160156 1030.921875 L 1234.476562 1016.421875 L 1243.148438 1001.519531 L 1247.484375 994.0625 C 1248.875 991.546875 1250.164062 988.976562 1251.511719 986.433594 L 1259.578125 971.175781 C 1262.140625 966.027344 1264.519531 960.789062 1267.003906 955.59375 L 1270.695312 947.785156 C 1271.972656 945.203125 1272.964844 942.496094 1274.113281 939.855469 L 1280.785156 923.910156 C 1281.953125 921.273438 1282.859375 918.539062 1283.871094 915.839844 L 1286.867188 907.730469 C 1288.820312 902.308594 1291.035156 896.964844 1292.671875 891.433594 L 1297.953125 874.945312 L 1299.273438 870.820312 L 1300.414062 866.644531 L 1302.671875 858.28125 C 1309.113281 836.066406 1313.359375 813.296875 1317.453125 790.476562 L 1318.507812 790.613281 Z M 1318.511719 790.609375 " fill-opacity="1" fill-rule="nonzero"/></g><g clip-path="url(#8d20abe233)"><path fill="#ffffff" d="M 1236.980469 880.105469 C 1240.050781 882.640625 1244.613281 882.191406 1247.152344 879.105469 L 1317.421875 793.796875 L 1365.015625 893.546875 C 1366.734375 897.15625 1371.050781 898.695312 1374.644531 896.972656 C 1378.238281 895.253906 1379.753906 890.902344 1378.058594 887.328125 L 1325.578125 777.339844 C 1324.515625 775.121094 1322.386719 773.582031 1319.9375 773.28125 C 1317.484375 772.980469 1315.046875 773.960938 1313.480469 775.859375 L 1235.996094 869.917969 C 1235.09375 871.03125 1234.566406 872.316406 1234.40625 873.632812 C 1234.113281 876 1235.007812 878.46875 1236.980469 880.105469 Z M 1236.980469 880.105469 " fill-opacity="1" fill-rule="nonzero"/></g><g clip-path="url(#0d5df5dd9b)"><path fill="#ffffff" d="M 1183.960938 521.394531 L 1035.917969 497.070312 L 1035.917969 495.734375 C 1036.546875 485.191406 1032.824219 475.070312 1025.511719 467.40625 C 1018.203125 459.746094 1008.359375 455.527344 997.746094 455.527344 L 372.671875 455.527344 C 361.492188 455.457031 351.863281 461.78125 347.433594 472.046875 C 343.003906 482.238281 345.042969 493.628906 352.636719 501.78125 L 406.765625 559.214844 C 415.761719 568.773438 421.105469 581.285156 421.808594 594.433594 L 440.578125 954.488281 C 443.25 1004.960938 484.792969 1044.539062 535.335938 1044.539062 L 917.398438 1044.539062 C 967.941406 1044.539062 1009.554688 1005.03125 1012.226562 954.488281 L 1031.417969 585.714844 L 1128.425781 601.671875 C 1134.683594 602.726562 1139.179688 608.28125 1138.828125 614.605469 L 1126.035156 840.679688 C 1125.613281 848.0625 1128.144531 855.230469 1133.066406 860.785156 C 1138.054688 866.339844 1144.804688 869.570312 1152.257812 869.992188 C 1152.75 869.992188 1153.242188 869.992188 1153.734375 869.992188 C 1168.003906 869.992188 1179.953125 859.238281 1181.289062 844.898438 L 1208.84375 553.730469 C 1210.320312 538.195312 1199.425781 524.066406 1184.03125 521.535156 Z M 994.863281 953.503906 C 992.683594 994.769531 958.660156 1027.035156 917.398438 1027.035156 L 535.335938 1027.035156 C 494.074219 1027.035156 460.121094 994.699219 457.941406 953.503906 L 439.171875 593.449219 C 438.257812 576.226562 431.226562 559.777344 419.417969 547.191406 L 365.289062 489.832031 C 361.070312 485.332031 362.757812 480.339844 363.390625 478.933594 C 364.023438 477.53125 366.484375 472.820312 372.671875 472.820312 L 997.886719 472.820312 C 1003.648438 472.820312 1009.0625 475.140625 1013 479.285156 C 1017.007812 483.503906 1019.046875 488.988281 1018.695312 494.753906 L 994.863281 953.433594 Z M 1191.550781 551.902344 L 1163.996094 843.070312 C 1163.503906 848.625 1158.792969 852.910156 1153.171875 852.417969 C 1150.429688 852.277344 1147.828125 851.085938 1146 848.976562 C 1144.171875 846.867188 1143.1875 844.265625 1143.398438 841.453125 L 1156.191406 615.378906 C 1157.035156 600.125 1146.351562 586.769531 1131.238281 584.308594 L 1033.175781 568.210938 L 1035.285156 514.433594 L 1181.21875 538.476562 C 1187.617188 539.53125 1192.183594 545.4375 1191.550781 551.902344 Z M 1191.550781 551.902344 " fill-opacity="1" fill-rule="nonzero"/></g><path fill="#ffffff" d="M 909.453125 593.308594 L 763.730469 593.308594 C 759.371094 593.308594 755.855469 596.824219 755.855469 601.179688 C 755.855469 605.539062 759.371094 609.054688 763.730469 609.054688 L 909.453125 609.054688 C 913.8125 609.054688 917.328125 605.539062 917.328125 601.179688 C 917.328125 596.824219 913.8125 593.308594 909.453125 593.308594 Z M 909.453125 593.308594 " fill-opacity="1" fill-rule="nonzero"/><path fill="#ffffff" d="M 909.453125 703.671875 L 763.730469 703.671875 C 759.371094 703.671875 755.855469 707.1875 755.855469 711.546875 C 755.855469 715.902344 759.371094 719.417969 763.730469 719.417969 L 909.453125 719.417969 C 913.8125 719.417969 917.328125 715.902344 917.328125 711.546875 C 917.328125 707.1875 913.8125 703.671875 909.453125 703.671875 Z M 909.453125 703.671875 " fill-opacity="1" fill-rule="nonzero"/><path fill="#ffffff" d="M 909.453125 814.109375 L 763.730469 814.109375 C 759.371094 814.109375 755.855469 817.621094 755.855469 821.980469 C 755.855469 826.339844 759.371094 829.855469 763.730469 829.855469 L 909.453125 829.855469 C 913.8125 829.855469 917.328125 826.339844 917.328125 821.980469 C 917.328125 817.621094 913.8125 814.109375 909.453125 814.109375 Z M 909.453125 814.109375 " fill-opacity="1" fill-rule="nonzero"/><path fill="#ffffff" d="M 909.453125 924.542969 L 763.730469 924.542969 C 759.371094 924.542969 755.855469 928.058594 755.855469 932.417969 C 755.855469 936.773438 759.371094 940.289062 763.730469 940.289062 L 909.453125 940.289062 C 913.8125 940.289062 917.328125 936.773438 917.328125 932.417969 C 917.328125 928.058594 913.8125 924.542969 909.453125 924.542969 Z M 909.453125 924.542969 " fill-opacity="1" fill-rule="nonzero"/><path fill="#ffffff" d="M 763.730469 665.007812 L 852.792969 665.007812 C 857.574219 665.007812 861.511719 661.144531 861.511719 656.292969 C 861.511719 651.441406 857.644531 647.578125 852.792969 647.578125 L 763.730469 647.578125 C 758.949219 647.578125 755.011719 651.441406 755.011719 656.292969 C 755.011719 661.144531 758.878906 665.007812 763.730469 665.007812 Z M 763.730469 665.007812 " fill-opacity="1" fill-rule="nonzero"/><path fill="#ffffff" d="M 763.730469 775.445312 L 852.792969 775.445312 C 857.574219 775.445312 861.511719 771.578125 861.511719 766.726562 C 861.511719 761.878906 857.644531 758.011719 852.792969 758.011719 L 763.730469 758.011719 C 758.949219 758.011719 755.011719 761.878906 755.011719 766.726562 C 755.011719 771.578125 758.878906 775.445312 763.730469 775.445312 Z M 763.730469 775.445312 " fill-opacity="1" fill-rule="nonzero"/><path fill="#ffffff" d="M 763.730469 885.878906 L 852.792969 885.878906 C 857.574219 885.878906 861.511719 882.015625 861.511719 877.164062 C 861.511719 872.3125 857.644531 868.445312 852.792969 868.445312 L 763.730469 868.445312 C 758.949219 868.445312 755.011719 872.3125 755.011719 877.164062 C 755.011719 882.015625 758.878906 885.878906 763.730469 885.878906 Z M 763.730469 885.878906 " fill-opacity="1" fill-rule="nonzero"/><g transform="matrix(1, 0, 0, 1, 91, 1336)"><g clip-path="url(#f3f790d72f)"><g fill="#ffffff" fill-opacity="1"><g transform="translate(1.388969, 106.947175)"><g><path d="M 51.597656 -68.285156 L 14.289062 -32.417969 L 14.289062 -68.285156 L 6.234375 -68.285156 L 6.234375 0 L 14.289062 0 L 14.289062 -22.730469 L 27.238281 -35.101562 L 52.363281 0 L 62.242188 0 L 33.085938 -40.472656 L 62.242188 -68.285156 Z M 51.597656 -68.285156 "/></g></g></g><g fill="#ffffff" fill-opacity="1"><g transform="translate(74.658924, 106.947175)"><g><path d="M 14.289062 0 L 14.289062 -68.285156 L 6.234375 -68.285156 L 6.234375 0 Z M 14.289062 0 "/></g></g></g><g fill="#ffffff" fill-opacity="1"><g transform="translate(104.773061, 106.947175)"><g><path d="M 1.917969 -68.285156 L 1.917969 -60.996094 L 25.128906 -60.996094 L 25.128906 0 L 33.472656 0 L 33.472656 -60.996094 L 56.679688 -60.996094 L 56.679688 -68.285156 Z M 1.917969 -68.285156 "/></g></g></g><g fill="#ffffff" fill-opacity="1"><g transform="translate(172.959981, 106.947175)"><g><path d="M 34.910156 1.535156 C 48.910156 1.535156 62.625 -7 64.351562 -24.839844 L 56.296875 -24.839844 C 54.570312 -11.699219 44.597656 -5.851562 34.910156 -5.851562 C 21.097656 -5.851562 11.796875 -16.304688 11.796875 -34.140625 C 11.796875 -51.980469 21.097656 -62.433594 34.910156 -62.433594 C 44.117188 -62.433594 52.746094 -58.214844 55.816406 -46.324219 L 63.96875 -46.324219 C 60.515625 -62.816406 48.335938 -69.820312 34.910156 -69.820312 C 16.6875 -69.820312 3.355469 -56.296875 3.355469 -34.140625 C 3.355469 -11.988281 16.6875 1.535156 34.910156 1.535156 Z M 34.910156 1.535156 "/></g></g></g><g fill="#ffffff" fill-opacity="1"><g transform="translate(249.778137, 106.947175)"><g><path d="M 52.363281 -38.839844 L 14.289062 -38.839844 L 14.289062 -68.285156 L 6.234375 -68.285156 L 6.234375 0 L 14.289062 0 L 14.289062 -31.554688 L 52.363281 -31.554688 L 52.363281 0 L 60.421875 0 L 60.421875 -68.285156 L 52.363281 -68.285156 Z M 52.363281 -38.839844 "/></g></g></g><g fill="#ffffff" fill-opacity="1"><g transform="translate(326.020788, 106.947175)"><g><path d="M 53.707031 -68.285156 L 6.234375 -68.285156 L 6.234375 0 L 53.324219 0 L 53.324219 -7.289062 L 14.289062 -7.289062 L 14.289062 -31.9375 L 49.871094 -31.9375 L 49.871094 -39.226562 L 14.289062 -39.226562 L 14.289062 -60.996094 L 53.707031 -60.996094 Z M 53.707031 -68.285156 "/></g></g></g><g fill="#ffffff" fill-opacity="1"><g transform="translate(391.714336, 106.947175)"><g><path d="M 52.554688 -45.265625 C 52.554688 -36.058594 52.554688 -23.402344 52.84375 -9.972656 C 49.105469 -16.589844 43.347656 -25.703125 38.648438 -33.085938 L 16.015625 -68.285156 L 6.234375 -68.285156 L 6.234375 0 L 14.195312 0 L 14.195312 -23.015625 C 14.195312 -32.222656 14.195312 -44.882812 13.90625 -58.308594 C 17.648438 -51.691406 23.402344 -42.582031 28.101562 -35.199219 L 50.734375 0 L 60.515625 0 L 60.515625 -68.285156 L 52.554688 -68.285156 Z M 52.554688 -45.265625 "/></g></g></g><g fill="#ffffff" fill-opacity="1"><g transform="translate(468.053189, 106.947175)"><g><path d="M 34.910156 1.535156 C 48.910156 1.535156 62.625 -7 64.351562 -24.839844 L 56.296875 -24.839844 C 54.570312 -11.699219 44.597656 -5.851562 34.910156 -5.851562 C 21.097656 -5.851562 11.796875 -16.304688 11.796875 -34.140625 C 11.796875 -51.980469 21.097656 -62.433594 34.910156 -62.433594 C 44.117188 -62.433594 52.746094 -58.214844 55.816406 -46.324219 L 63.96875 -46.324219 C 60.515625 -62.816406 48.335938 -69.820312 34.910156 -69.820312 C 16.6875 -69.820312 3.355469 -56.296875 3.355469 -34.140625 C 3.355469 -11.988281 16.6875 1.535156 34.910156 1.535156 Z M 34.910156 1.535156 "/></g></g></g><g fill="#ffffff" fill-opacity="1"><g transform="translate(544.871302, 106.947175)"><g><path d="M 36.058594 1.535156 C 55.914062 1.535156 68.765625 -12.945312 68.765625 -34.140625 C 68.765625 -55.335938 55.914062 -69.820312 36.058594 -69.820312 C 16.207031 -69.820312 3.355469 -55.335938 3.355469 -34.140625 C 3.355469 -12.945312 16.207031 1.535156 36.058594 1.535156 Z M 36.058594 -5.851562 C 21.386719 -5.851562 11.796875 -16.785156 11.796875 -34.140625 C 11.796875 -51.5 21.386719 -62.433594 36.058594 -62.433594 C 50.734375 -62.433594 60.324219 -51.5 60.324219 -34.140625 C 60.324219 -16.785156 50.734375 -5.851562 36.058594 -5.851562 Z M 36.058594 -5.851562 "/></g></g></g><g fill="#ffffff" fill-opacity="1"><g transform="translate(626.580039, 106.947175)"><g><path d="M 52.554688 -45.265625 C 52.554688 -36.058594 52.554688 -23.402344 52.84375 -9.972656 C 49.105469 -16.589844 43.347656 -25.703125 38.648438 -33.085938 L 16.015625 -68.285156 L 6.234375 -68.285156 L 6.234375 0 L 14.195312 0 L 14.195312 -23.015625 C 14.195312 -32.222656 14.195312 -44.882812 13.90625 -58.308594 C 17.648438 -51.691406 23.402344 -42.582031 28.101562 -35.199219 L 50.734375 0 L 60.515625 0 L 60.515625 -68.285156 L 52.554688 -68.285156 Z M 52.554688 -45.265625 "/></g></g></g><g fill="#ffffff" fill-opacity="1"><g transform="translate(702.918897, 106.947175)"><g><path d="M 37.5 -25.03125 C 35.390625 -19.179688 33.375 -13.425781 31.648438 -8.054688 C 29.921875 -13.425781 27.910156 -19.179688 25.796875 -25.03125 L 9.972656 -68.285156 L 1.4375 -68.285156 L 27.140625 0 L 36.15625 0 L 61.476562 -68.285156 L 53.035156 -68.285156 Z M 37.5 -25.03125 "/></g></g></g><g fill="#ffffff" fill-opacity="1"><g transform="translate(775.421858, 106.947175)"><g><path d="M 53.707031 -68.285156 L 6.234375 -68.285156 L 6.234375 0 L 53.324219 0 L 53.324219 -7.289062 L 14.289062 -7.289062 L 14.289062 -31.9375 L 49.871094 -31.9375 L 49.871094 -39.226562 L 14.289062 -39.226562 L 14.289062 -60.996094 L 53.707031 -60.996094 Z M 53.707031 -68.285156 "/></g></g></g><g fill="#ffffff" fill-opacity="1"><g transform="translate(841.114581, 106.947175)"><g><path d="M 56.390625 -19.757812 C 55.914062 -26.855469 52.941406 -31.265625 46.992188 -33.183594 C 53.417969 -35.292969 58.214844 -40.664062 58.214844 -49.679688 C 58.214844 -61.859375 48.527344 -68.285156 35.101562 -68.285156 L 6.234375 -68.285156 L 6.234375 0 L 14.289062 0 L 14.289062 -29.15625 L 36.539062 -29.15625 C 44.691406 -29.15625 48.335938 -25.894531 48.71875 -16.398438 L 49.007812 -9.109375 C 49.105469 -5.464844 49.679688 -2.207031 51.214844 0 L 59.558594 0 C 57.925781 -2.398438 57.253906 -5.660156 57.0625 -8.726562 Z M 14.289062 -36.445312 L 14.289062 -60.996094 L 35.101562 -60.996094 C 44.019531 -60.996094 49.871094 -57.351562 49.871094 -49.199219 C 49.871094 -40.566406 44.019531 -36.445312 36.058594 -36.445312 Z M 14.289062 -36.445312 "/></g></g></g><g fill="#ffffff" fill-opacity="1"><g transform="translate(912.658191, 106.947175)"><g><path d="M 1.917969 -68.285156 L 1.917969 -60.996094 L 25.128906 -60.996094 L 25.128906 0 L 33.472656 0 L 33.472656 -60.996094 L 56.679688 -60.996094 L 56.679688 -68.285156 Z M 1.917969 -68.285156 "/></g></g></g><g fill="#ffffff" fill-opacity="1"><g transform="translate(980.845137, 106.947175)"><g><path d="M 31.265625 1.535156 C 47.664062 1.535156 56.871094 -6.425781 56.871094 -18.507812 C 56.871094 -28.386719 51.308594 -34.527344 35.582031 -37.980469 L 29.539062 -39.320312 C 16.6875 -42.199219 13.523438 -45.460938 13.523438 -51.980469 C 13.523438 -58.40625 18.605469 -62.53125 28.484375 -62.53125 C 42.101562 -62.53125 46.226562 -57.253906 46.898438 -48.433594 L 55.144531 -48.433594 C 54.859375 -59.558594 48.625 -69.820312 28.484375 -69.820312 C 14.289062 -69.820312 5.179688 -62.914062 5.179688 -51.980469 C 5.179688 -39.511719 14.289062 -34.8125 25.894531 -32.222656 L 31.9375 -30.882812 C 44.019531 -28.195312 48.527344 -25.03125 48.527344 -18.507812 C 48.527344 -10.070312 42.199219 -5.753906 31.265625 -5.753906 C 20.140625 -5.753906 11.414062 -9.878906 11.222656 -22.539062 L 2.878906 -22.539062 C 3.070312 -5.464844 14.960938 1.535156 31.265625 1.535156 Z M 31.265625 1.535156 "/></g></g></g><g fill="#ffffff" fill-opacity="1"><g transform="translate(1049.703579, 106.947175)"><g><path d="M 14.003906 0 L 14.003906 -9.589844 L 4.316406 -9.589844 L 4.316406 0 Z M 14.003906 0 "/></g></g></g><g fill="#ffffff" fill-opacity="1"><g transform="translate(1077.61212, 106.947175)"><g><path d="M 34.910156 1.535156 C 48.910156 1.535156 62.625 -7 64.351562 -24.839844 L 56.296875 -24.839844 C 54.570312 -11.699219 44.597656 -5.851562 34.910156 -5.851562 C 21.097656 -5.851562 11.796875 -16.304688 11.796875 -34.140625 C 11.796875 -51.980469 21.097656 -62.433594 34.910156 -62.433594 C 44.117188 -62.433594 52.746094 -58.214844 55.816406 -46.324219 L 63.96875 -46.324219 C 60.515625 -62.816406 48.335938 -69.820312 34.910156 -69.820312 C 16.6875 -69.820312 3.355469 -56.296875 3.355469 -34.140625 C 3.355469 -11.988281 16.6875 1.535156 34.910156 1.535156 Z M 34.910156 1.535156 "/></g></g></g><g fill="#ffffff" fill-opacity="1"><g transform="translate(1154.430282, 106.947175)"><g><path d="M 36.058594 1.535156 C 55.914062 1.535156 68.765625 -12.945312 68.765625 -34.140625 C 68.765625 -55.335938 55.914062 -69.820312 36.058594 -69.820312 C 16.207031 -69.820312 3.355469 -55.335938 3.355469 -34.140625 C 3.355469 -12.945312 16.207031 1.535156 36.058594 1.535156 Z M 36.058594 -5.851562 C 21.386719 -5.851562 11.796875 -16.785156 11.796875 -34.140625 C 11.796875 -51.5 21.386719 -62.433594 36.058594 -62.433594 C 50.734375 -62.433594 60.324219 -51.5 60.324219 -34.140625 C 60.324219 -16.785156 50.734375 -5.851562 36.058594 -5.851562 Z M 36.058594 -5.851562 "/></g></g></g><g fill="#ffffff" fill-opacity="1"><g transform="translate(1236.139019, 106.947175)"><g><path d="M 48.433594 -30.59375 C 45.652344 -23.878906 42.484375 -15.34375 40.375 -9.78125 C 38.363281 -15.058594 35.390625 -22.730469 32.609375 -29.441406 L 16.785156 -68.285156 L 6.234375 -68.285156 L 6.234375 0 L 14.097656 0 L 14.097656 -21.867188 C 14.097656 -30.976562 14.097656 -43.445312 13.808594 -56.679688 C 15.632812 -51.597656 17.453125 -46.992188 19.851562 -41.144531 L 36.828125 0 L 43.734375 0 L 60.613281 -41.144531 C 63.011719 -46.992188 64.832031 -51.597656 66.65625 -56.679688 C 66.367188 -43.445312 66.367188 -30.976562 66.367188 -21.867188 L 66.367188 0 L 74.230469 0 L 74.230469 -68.285156 L 63.679688 -68.285156 Z M 48.433594 -30.59375 "/></g></g></g></g></g></svg>